<svg width="174" height="150" viewBox="0 0 174 150" fill="none" xmlns="http://www.w3.org/2000/svg">
<g clip-path="url(#clip0_309_17)">
<path d="M0 148.481C0 148.7 0.175778 148.876 0.394667 148.876H173.605C173.824 148.876 174 148.7 174 148.481C174 148.262 173.824 148.086 173.605 148.086H0.394667C0.175776 148.086 0 148.262 0 148.481Z" fill="#3F3C57"/>
<path d="M56.5136 15.9412L58.3972 24.5392L54.3907 36.5068L47.9358 23.6486L48.8315 16.189L56.5136 15.9412Z" fill="#FDB4B4"/>
<path d="M58.7472 24.0939H47.602V37.5644H58.7472V24.0939Z" fill="#253890"/>
<path d="M54.1641 20.2722C58.3677 20.2722 61.7754 16.8634 61.7754 12.6584C61.7754 8.45342 58.3677 5.04462 54.1641 5.04462C49.9604 5.04462 46.5527 8.45342 46.5527 12.6584C46.5527 16.8634 49.9604 20.2722 54.1641 20.2722Z" fill="#FDB4B4"/>
<path d="M47.5387 18.32C47.5387 18.32 41.8651 7.83863 46.9805 2.79472C52.0959 -2.24919 56.2022 1.07443 56.2022 1.07443L58.5471 0.979638C58.5471 0.979638 59.0362 2.82561 59.8248 1.82631C60.6133 0.827005 62.0384 4.46633 62.0384 4.46633C64.6832 9.23107 55.5145 10.2985 55.5145 10.2985C55.5145 10.2985 56.1766 12.4081 55.5036 12.8499C54.8307 13.2918 53.0327 14.9538 53.0327 14.9538L51.4233 16.1696L50.4669 14.712C50.4669 14.712 49.468 13.9232 48.9632 14.2545C48.4585 14.5859 49.1528 18.9458 49.1528 18.9458L47.5387 18.32Z" fill="#2E2E41"/>
<path d="M38.4077 95.4298L35.4977 138.851L42.6515 139.094L52.1091 95.7937L38.4077 95.4298Z" fill="#2E2E41"/>
<path d="M55.7467 95.1872L52.8366 138.609L59.9905 138.851L69.4481 95.5511L55.7467 95.1872Z" fill="#2E2E41"/>
<path d="M36.6554 105.35L40.4638 58.0581L34.6235 33.432C34.12 29.7713 36.4258 26.3075 39.9846 25.363L45.6993 23.8464L48.2287 21.3161L53.982 34.0252L57.5752 21.3258L60.3775 23.3645L68.6887 27.0324L68.6849 27.1183L67.3518 56.8665L70.3276 104.929L70.1957 104.931L36.6554 105.35Z" fill="#E8E9EA"/>
<path d="M59.5311 138.358L61.6025 144.544C61.6025 144.544 69.7064 145.646 69.8325 148.155C69.9586 150.665 58.8189 149.212 52.296 149.54C45.7731 149.868 51.2029 142.802 51.2029 142.802L51.898 138.742L59.5311 138.358Z" fill="#2E2E41"/>
<path d="M42.6149 137.913L44.6863 144.098C44.6863 144.098 52.7901 145.201 52.9162 147.71C53.0423 150.22 41.9027 148.767 35.3797 149.095C28.8568 149.423 34.2866 142.357 34.2866 142.357L34.9817 138.296L42.6149 137.913Z" fill="#2E2E41"/>
<path d="M32.5087 80.234C32.4209 79.0144 32.6264 77.7914 33.108 76.6676L31.562 63.9816L37.618 63.4223L38.534 76.351C39.1426 77.411 39.4886 78.6013 39.543 79.8225C39.7211 82.8772 38.2908 85.4443 36.3481 85.5577C34.4054 85.6711 32.6864 83.2876 32.5087 80.234Z" fill="#FDB4B4"/>
<path d="M70.8656 82.0961C70.7911 80.8756 71.0099 79.655 71.5037 78.5364L70.0961 65.8344L76.1578 65.3411L76.9329 78.279C77.5299 79.3456 77.8628 80.5397 77.904 81.7614C78.0488 84.8178 76.5905 87.3691 74.6467 87.4613C72.7029 87.5535 71.01 85.1514 70.8656 82.0961Z" fill="#FDB4B4"/>
<path d="M31.5372 75.1465L31.5167 75.037L28.3605 58.0973L32.0898 30.5128C32.4226 28.05 34.621 26.276 37.0999 26.4743C38.3946 26.578 39.5561 27.1922 40.3709 28.204C41.1856 29.2159 41.5381 30.4821 41.3634 31.7695L38.5566 52.4575L40.3238 74.5854L31.5372 75.1465Z" fill="#E8E9EA"/>
<path d="M68.9952 74.7489L62.6497 32.3783C62.3198 31.1359 62.5129 29.8357 63.1961 28.7309C63.8793 27.626 64.9559 26.8727 66.2279 26.6095C68.6612 26.1061 71.0641 27.594 71.6992 29.9963L77.7953 74.2168L68.9952 74.7489Z" fill="#E8E9EA"/>
<path d="M54.1681 37.8983C54.5984 37.8983 54.9472 37.5495 54.9472 37.1191C54.9472 36.6887 54.5984 36.3398 54.1681 36.3398C53.7379 36.3398 53.3891 36.6887 53.3891 37.1191C53.3891 37.5495 53.7379 37.8983 54.1681 37.8983Z" fill="#D6D7D8"/>
<path d="M54.1681 43.7987C54.5984 43.7987 54.9472 43.4498 54.9472 43.0194C54.9472 42.589 54.5984 42.2401 54.1681 42.2401C53.7379 42.2401 53.3891 42.589 53.3891 43.0194C53.3891 43.4498 53.7379 43.7987 54.1681 43.7987Z" fill="#D6D7D8"/>
<path d="M54.1681 49.6989C54.5984 49.6989 54.9472 49.35 54.9472 48.9197C54.9472 48.4893 54.5984 48.1404 54.1681 48.1404C53.7379 48.1404 53.3891 48.4893 53.3891 48.9197C53.3891 49.35 53.7379 49.6989 54.1681 49.6989Z" fill="#D6D7D8"/>
<path d="M54.1681 55.5992C54.5984 55.5992 54.9472 55.2503 54.9472 54.82C54.9472 54.3896 54.5984 54.0407 54.1681 54.0407C53.7379 54.0407 53.3891 54.3896 53.3891 54.82C53.3891 55.2503 53.7379 55.5992 54.1681 55.5992Z" fill="#D6D7D8"/>
<path d="M54.1681 61.4995C54.5984 61.4995 54.9472 61.1506 54.9472 60.7203C54.9472 60.2899 54.5984 59.941 54.1681 59.941C53.7379 59.941 53.3891 60.2899 53.3891 60.7203C53.3891 61.1506 53.7379 61.4995 54.1681 61.4995Z" fill="#D6D7D8"/>
<path d="M54.1681 67.3998C54.5984 67.3998 54.9472 67.0509 54.9472 66.6205C54.9472 66.1901 54.5984 65.8412 54.1681 65.8412C53.7379 65.8412 53.3891 66.1901 53.3891 66.6205C53.3891 67.0509 53.7379 67.3998 54.1681 67.3998Z" fill="#D6D7D8"/>
<path d="M54.1681 73.3001C54.5984 73.3001 54.9472 72.9512 54.9472 72.5209C54.9472 72.0905 54.5984 71.7416 54.1681 71.7416C53.7379 71.7416 53.3891 72.0905 53.3891 72.5209C53.3891 72.9512 53.7379 73.3001 54.1681 73.3001Z" fill="#D6D7D8"/>
<path d="M54.1681 79.2004C54.5984 79.2004 54.9472 78.8515 54.9472 78.4211C54.9472 77.9907 54.5984 77.6418 54.1681 77.6418C53.7379 77.6418 53.3891 77.9907 53.3891 78.4211C53.3891 78.8515 53.7379 79.2004 54.1681 79.2004Z" fill="#D6D7D8"/>
<path d="M54.1691 83.7646L39.4288 81.7997L39.1449 81.762L31.6115 64.3861L27.1251 54.0411H38.8108L54.1691 83.7646Z" fill="#253890"/>
<path d="M113.27 17.8316L122.641 12.696V27.3691H111.803L113.27 17.8316Z" fill="#2E2E41"/>
<path d="M124.651 21.103L125.516 28.3066L119.282 40.7236L115.413 29.1666L117.232 20.8637L124.651 21.103Z" fill="#FDB4B4"/>
<path d="M125.838 28.7366H115.075V41.7449H125.838V28.7366Z" fill="#253890"/>
<path d="M134.717 97.6247L137.527 139.556L130.618 139.791L121.485 97.9761L134.717 97.6247Z" fill="#2E2E41"/>
<path d="M117.973 97.3904L120.783 139.322L113.875 139.556L104.741 97.7418L117.973 97.3904Z" fill="#2E2E41"/>
<path d="M142.015 106.518L141.851 106.518L97.8413 106.374L97.8808 106.218L109.196 61.3748L106.361 38.744C105.824 34.4558 108.119 30.4024 112.072 28.6581L113.499 28.0284L116.21 26.0564L119.678 38.3146L125.231 26.0468L127.678 28.4937L133.195 29.958C136.634 30.8706 138.862 34.2176 138.377 37.7433L138.372 37.7679L129.946 61.8175L142.015 106.518Z" fill="#E8E9EA"/>
<path d="M114.318 139.08L121.689 139.45L122.361 143.372C122.361 143.372 127.604 150.195 121.305 149.878C115.006 149.562 104.248 150.965 104.37 148.541C104.492 146.118 112.318 145.053 112.318 145.053L114.318 139.08Z" fill="#2E2E41"/>
<path d="M130.654 138.65L138.025 139.02L138.696 142.942C138.696 142.942 143.94 149.765 137.641 149.448C131.342 149.132 120.584 150.535 120.706 148.111C120.828 145.688 128.654 144.623 128.654 144.623L130.654 138.65Z" fill="#2E2E41"/>
<path d="M137.404 82.5203C137.232 85.4691 135.572 87.7708 133.696 87.6613C131.82 87.5518 130.439 85.0728 130.611 82.123C130.664 80.9437 130.998 79.7941 131.585 78.7705L132.47 66.2855L138.318 66.8256L136.825 79.0763C137.29 80.1616 137.489 81.3425 137.404 82.5203Z" fill="#FDB4B4"/>
<path d="M107.351 81.399C107.117 84.3435 105.408 86.6094 103.535 86.4599C101.662 86.3105 100.333 83.8026 100.568 80.8571C100.646 79.6792 101.004 78.5371 101.614 77.5262L102.764 65.0628L108.599 65.7274L106.846 77.9434C107.288 79.0384 107.461 80.2233 107.351 81.399Z" fill="#FDB4B4"/>
<path d="M138.346 77.6119L129.852 77.0696L129.863 76.9422L131.559 55.697L128.849 35.7194C128.68 34.475 129.021 33.251 129.808 32.273C130.596 31.2949 131.718 30.7012 132.97 30.601C135.366 30.412 137.491 32.1242 137.813 34.5046L141.414 61.1433L141.41 61.1632L138.346 77.6119Z" fill="#E8E9EA"/>
<path d="M108.765 76.798L100.258 76.2836L100.277 76.1492L106.143 33.5904C106.76 31.253 109.083 29.8152 111.434 30.3016C112.664 30.5559 113.705 31.2841 114.365 32.3522C115.025 33.4202 115.212 34.6769 114.89 35.8908L108.765 76.798Z" fill="#E8E9EA"/>
<path d="M119.497 42.0674C119.913 42.0674 120.249 41.7304 120.249 41.3148C120.249 40.8992 119.913 40.5623 119.497 40.5623C119.082 40.5623 118.745 40.8992 118.745 41.3148C118.745 41.7304 119.082 42.0674 119.497 42.0674Z" fill="#D6D7D8"/>
<path d="M119.497 47.7652C119.913 47.7652 120.249 47.4283 120.249 47.0127C120.249 46.5971 119.913 46.2601 119.497 46.2601C119.082 46.2601 118.745 46.5971 118.745 47.0127C118.745 47.4283 119.082 47.7652 119.497 47.7652Z" fill="#D6D7D8"/>
<path d="M119.497 53.4631C119.913 53.4631 120.249 53.1261 120.249 52.7105C120.249 52.2949 119.913 51.958 119.497 51.958C119.082 51.958 118.745 52.2949 118.745 52.7105C118.745 53.1261 119.082 53.4631 119.497 53.4631Z" fill="#D6D7D8"/>
<path d="M119.497 59.1609C119.913 59.1609 120.249 58.824 120.249 58.4083C120.249 57.9927 119.913 57.6558 119.497 57.6558C119.082 57.6558 118.745 57.9927 118.745 58.4083C118.745 58.824 119.082 59.1609 119.497 59.1609Z" fill="#D6D7D8"/>
<path d="M119.497 64.8587C119.913 64.8587 120.249 64.5218 120.249 64.1062C120.249 63.6906 119.913 63.3536 119.497 63.3536C119.082 63.3536 118.745 63.6906 118.745 64.1062C118.745 64.5218 119.082 64.8587 119.497 64.8587Z" fill="#D6D7D8"/>
<path d="M119.497 70.5565C119.913 70.5565 120.249 70.2196 120.249 69.804C120.249 69.3884 119.913 69.0515 119.497 69.0515C119.082 69.0515 118.745 69.3884 118.745 69.804C118.745 70.2196 119.082 70.5565 119.497 70.5565Z" fill="#D6D7D8"/>
<path d="M119.497 76.2544C119.913 76.2544 120.249 75.9175 120.249 75.5018C120.249 75.0862 119.913 74.7493 119.497 74.7493C119.082 74.7493 118.745 75.0862 118.745 75.5018C118.745 75.9175 119.082 76.2544 119.497 76.2544Z" fill="#D6D7D8"/>
<path d="M119.497 81.9522C119.913 81.9522 120.249 81.6153 120.249 81.1997C120.249 80.7841 119.913 80.4471 119.497 80.4471C119.082 80.4471 118.745 80.7841 118.745 81.1997C118.745 81.6153 119.082 81.9522 119.497 81.9522Z" fill="#D6D7D8"/>
<path d="M120.639 24.7794C124.525 24.7794 127.676 21.628 127.676 17.7405C127.676 13.853 124.525 10.7016 120.639 10.7016C116.753 10.7016 113.602 13.853 113.602 17.7405C113.602 21.628 116.753 24.7794 120.639 24.7794Z" fill="#FDB4B4"/>
<path d="M124.327 9.52342C124.664 10.2094 124.129 11.0663 123.421 11.3547C122.714 11.6431 121.914 11.5263 121.16 11.4062C120.405 11.2862 119.604 11.1723 118.899 11.4658C117.986 11.8456 117.471 12.7983 117.028 13.6823C116.2 15.3327 115.372 16.9831 114.544 18.6335C114.139 19.4398 113.726 20.2824 113.718 21.1845C113.704 22.8405 115.017 24.1638 115.723 25.6614C116.584 27.4848 116.513 29.7194 115.539 31.4845C114.564 33.2496 112.712 34.5003 110.711 34.7435C110.184 34.8075 109.627 34.8006 109.154 34.5613C108.681 34.3221 108.319 33.7996 108.407 33.2764C108.578 32.2531 110.142 32.014 110.429 31.0169C110.578 30.4965 110.313 29.9406 109.955 29.5341C109.597 29.1276 109.145 28.8104 108.804 28.3899C108.017 27.4203 107.964 25.9235 108.681 24.9011C109.103 24.3003 109.755 23.8539 110.027 23.1724C110.259 22.5914 110.175 21.9384 110.087 21.319C109.974 20.5231 109.861 19.7271 109.748 18.9312C109.616 18.0026 109.487 17.0406 109.747 16.1396C110.344 14.0749 112.675 13.1051 114.042 11.4466C114.677 10.6759 115.104 9.74906 115.756 8.99224C116.849 7.72219 118.571 7.02156 120.24 7.1672C121.909 7.31285 123.483 8.30103 124.341 9.74127" fill="#2E2E41"/>
<path d="M123.216 9.65359C122.872 9.77658 122.745 10.2245 122.843 10.576C122.942 10.9276 123.202 11.2069 123.439 11.4846C126.121 14.6249 126.745 19.375 124.964 23.1017C124.49 24.0929 123.859 25.0258 123.603 26.0944C123.417 26.8719 123.427 27.7248 122.996 28.3979C122.557 29.0831 121.687 29.5423 121.601 30.3517C121.546 30.8711 121.862 31.3756 122.287 31.6801C122.711 31.9846 123.229 32.1239 123.739 32.2375C125.063 32.5328 126.418 32.694 127.775 32.7178C128.217 32.7256 128.674 32.7161 129.08 32.5397C129.485 32.3634 129.832 31.981 129.836 31.5384C129.84 31.1906 129.639 30.8697 129.614 30.5228C129.537 29.4833 130.936 28.9303 131.208 27.9242C131.387 27.2628 131.034 26.5822 130.658 26.0093C130.282 25.4364 129.853 24.8349 129.863 24.1497C129.871 23.4937 130.283 22.916 130.443 22.2798C130.664 21.3998 130.392 20.4793 130.123 19.6129C129.894 18.8763 129.665 18.1397 129.435 17.4031C129.192 16.6201 128.948 15.837 128.704 15.054C128.279 13.6869 127.833 12.2803 126.912 11.1839C125.992 10.0875 124.467 9.36883 123.107 9.81648" fill="#2E2E41"/>
<path d="M128.011 36.9295L127.529 36.7889C128.533 33.3426 126.367 26.9112 126.345 26.8466L126.82 26.6844C126.912 26.9543 129.06 33.3322 128.011 36.9295Z" fill="#3F3C57"/>
<path d="M127.77 40.888C128.929 40.888 129.868 39.9482 129.868 38.7888C129.868 37.6295 128.929 36.6896 127.77 36.6896C126.611 36.6896 125.671 37.6295 125.671 38.7888C125.671 39.9482 126.611 40.888 127.77 40.888Z" fill="#3F3C57"/>
<path d="M113.981 46.2206H112.708C112.57 46.2206 112.457 46.1081 112.457 45.9693C112.457 45.8306 112.57 45.7181 112.708 45.7181H113.981C114.332 45.7181 114.661 45.5814 114.909 45.3331C115.157 45.0849 115.293 44.7549 115.292 44.4043L115.277 36.5628C115.277 34.8593 113.892 33.4738 112.189 33.4738C110.487 33.4738 109.101 34.8593 109.101 36.5623L109.117 43.902C109.118 44.618 109.702 45.205 110.418 45.2105L111.291 45.2171C111.43 45.2182 111.541 45.3315 111.54 45.4704C111.539 45.6084 111.427 45.7197 111.289 45.7197H111.287L110.414 45.713C109.424 45.7054 108.616 44.8933 108.614 43.9029L108.599 36.5628C108.599 34.5823 110.209 32.9713 112.189 32.9713C114.168 32.9713 115.779 34.5823 115.779 36.5623L115.794 44.4033C115.795 44.8884 115.607 45.3447 115.265 45.688C114.922 46.0314 114.466 46.2206 113.981 46.2206Z" fill="#3F3C57"/>
<path d="M111.289 46.359C111.781 46.359 112.18 45.9603 112.18 45.4684C112.18 44.9765 111.781 44.5778 111.289 44.5778C110.798 44.5778 110.399 44.9765 110.399 45.4684C110.399 45.9603 110.798 46.359 111.289 46.359Z" fill="#3F3C57"/>
<path d="M112.708 46.86C113.2 46.86 113.599 46.4612 113.599 45.9694C113.599 45.4775 113.2 45.0788 112.708 45.0788C112.217 45.0788 111.818 45.4775 111.818 45.9694C111.818 46.4612 112.217 46.86 112.708 46.86Z" fill="#3F3C57"/>
<path d="M61.3102 33.163L60.828 33.0224C61.8328 29.576 59.6905 23.045 59.6687 22.9805L60.2715 23.4351C60.3635 23.7049 62.3592 29.5657 61.3102 33.163Z" fill="#3F3C57"/>
<path d="M44.3569 33.7753L44.8392 33.6347C43.8344 30.1883 46.001 23.7569 46.0228 23.6924L45.5069 24.0381C45.4149 24.3079 43.3079 30.178 44.3569 33.7753Z" fill="#3F3C57"/>
<path d="M61.0691 37.1215C62.2281 37.1215 63.1677 36.1816 63.1677 35.0223C63.1677 33.8629 62.2281 32.9231 61.0691 32.9231C59.9101 32.9231 58.9706 33.8629 58.9706 35.0223C58.9706 36.1816 59.9101 37.1215 61.0691 37.1215Z" fill="#3F3C57"/>
<path d="M46.5942 46.6845H45.3215C45.1826 46.6845 45.0703 46.572 45.0703 46.4332C45.0703 46.2944 45.1826 46.1819 45.3215 46.1819H46.5942C46.9449 46.1819 47.2744 46.0453 47.5222 45.7969C47.7697 45.5487 47.9058 45.2188 47.9051 44.8681L47.8896 37.0266C47.8896 35.3232 46.5046 33.9377 44.8022 33.9377C43.0997 33.9377 41.7144 35.3232 41.7144 37.0262L41.7299 44.3658C41.7314 45.0819 42.315 45.6688 43.0308 45.6744L43.9043 45.681C44.0429 45.6821 44.1545 45.7953 44.1536 45.9342C44.1526 46.0723 44.0402 46.1835 43.9024 46.1835H43.9004L43.0268 46.1769C42.0368 46.1693 41.2295 45.3572 41.2275 44.3668L41.212 37.0266C41.212 35.0461 42.8225 33.4352 44.8022 33.4352C46.7816 33.4352 48.392 35.0461 48.392 37.0262L48.4075 44.8672C48.4085 45.3523 48.2203 45.8086 47.8776 46.1519C47.5352 46.4953 47.0791 46.6845 46.5942 46.6845Z" fill="#3F3C57"/>
<path d="M43.9024 46.8229C44.3942 46.8229 44.7928 46.4241 44.7928 45.9323C44.7928 45.4404 44.3942 45.0417 43.9024 45.0417C43.4107 45.0417 43.0121 45.4404 43.0121 45.9323C43.0121 46.4241 43.4107 46.8229 43.9024 46.8229Z" fill="#3F3C57"/>
<path d="M45.3214 47.3239C45.8131 47.3239 46.2118 46.9251 46.2118 46.4332C46.2118 45.9414 45.8131 45.5426 45.3214 45.5426C44.8297 45.5426 44.4311 45.9414 44.4311 46.4332C44.4311 46.9251 44.8297 47.3239 45.3214 47.3239Z" fill="#3F3C57"/>
</g>
<defs>
<clipPath id="clip0_309_17">
<rect width="174" height="150" fill="white"/>
</clipPath>
</defs>
</svg>
